<svg width="44" height="44" viewBox="0 0 44 44" fill="none" xmlns="http://www.w3.org/2000/svg">
  <path d="M21.5663 2.69656V4.72056M21.5663 14.7588V19.5831M21.5663 38.412V40.436M2.69971 21.5663H4.72056M38.4151 21.5663H40.436M35.0428 8.0897L33.6977 9.43484M9.43485 33.6946L8.08971 35.0397M8.08971 8.0897L9.43485 9.43484M33.6977 33.6946L35.0428 35.0397M9.42856 21.5663C9.42856 23.1598 9.74243 24.7377 10.3523 26.21C10.9621 27.6822 11.8559 29.0199 12.9827 30.1467C14.1095 31.2735 15.4472 32.1673 16.9194 32.7772C18.3917 33.387 19.9696 33.7008 21.5631 33.7008C23.1567 33.7008 24.7346 33.387 26.2068 32.7772C27.6791 32.1673 29.0168 31.2735 30.1436 30.1467C31.2704 29.0199 32.1642 27.6822 32.774 26.21C33.3838 24.7377 33.6977 23.1598 33.6977 21.5663C33.6977 18.348 32.4192 15.2615 30.1436 12.9858C27.8679 10.7102 24.7814 9.4317 21.5631 9.4317C18.3448 9.4317 15.2584 10.7102 12.9827 12.9858C10.707 15.2615 9.42856 18.348 9.42856 21.5663Z" stroke="#5ADD75" stroke-width="1.83333" stroke-linecap="round" stroke-linejoin="round"/>
  <path d="M17.1284 18.1626C16.5109 18.9863 16.135 19.9657 16.0428 20.991C15.9506 22.0163 16.1456 23.0471 16.6062 23.9678C17.0667 24.8885 17.7744 25.6628 18.6502 26.2039C19.5259 26.7451 20.5351 27.0317 21.5645 27.0317C22.594 27.0317 23.6031 26.7451 24.4788 26.2039C25.3546 25.6628 26.0623 24.8885 26.5229 23.9678C26.9834 23.0471 27.1784 22.0163 27.0862 20.991C26.994 19.9657 26.6181 18.9863 26.0007 18.1626" stroke="#5ADD75" stroke-width="1.83333" stroke-linecap="round" stroke-linejoin="round"/>
</svg>
